<svg xmlns="http://www.w3.org/2000/svg" xmlns:xlink="http://www.w3.org/1999/xlink" width="300" height="300" viewBox="0 0 300 300">
    <defs>
        <path id="a" d="M21.43 43.516A21.426 21.426 0 0 1 0 22.086C0 10.248 9.592 0 21.43 0s21.43 8.936 21.43 20.774v1.312a21.427 21.427 0 0 1-21.43 21.43zm64.29 0a21.426 21.426 0 0 1-21.43-21.43C64.29 10.248 73.882 0 85.72 0s21.43 8.936 21.43 20.774v1.312a21.426 21.426 0 0 1-21.43 21.43zm64.29 0a21.426 21.426 0 0 1-21.43-21.43C128.58 10.248 138.17 0 150.01 0c11.837 0 21.43 8.936 21.43 20.774v1.312a21.426 21.426 0 0 1-21.43 21.43zM21.43 109.212A21.427 21.427 0 0 1 0 87.782c0-11.838 9.592-22.086 21.43-22.086s21.43 8.937 21.43 20.775v1.311a21.426 21.426 0 0 1-21.43 21.43zm64.29 0a21.427 21.427 0 0 1-21.43-21.43c0-11.838 9.592-22.086 21.43-22.086s21.43 8.937 21.43 20.775v1.311a21.426 21.426 0 0 1-21.43 21.43zm64.29 0a21.426 21.426 0 0 1-21.43-21.43c0-11.838 9.591-22.086 21.43-22.086 11.837 0 21.43 8.937 21.43 20.775v1.311a21.426 21.426 0 0 1-21.43 21.43zM21.43 174.908A21.427 21.427 0 0 1 0 153.478c0-11.838 9.592-22.085 21.43-22.085s21.43 8.936 21.43 20.774v1.312a21.426 21.426 0 0 1-21.43 21.43zm64.29 0a21.427 21.427 0 0 1-21.43-21.43c0-11.838 9.592-22.085 21.43-22.085s21.43 8.936 21.43 20.774v1.312a21.426 21.426 0 0 1-21.43 21.43zm64.29 0a21.426 21.426 0 0 1-21.43-21.43c0-11.838 9.591-22.085 21.43-22.085 11.837 0 21.43 8.936 21.43 20.774v1.312a21.426 21.426 0 0 1-21.43 21.43z"/>
    </defs>
    <g fill="none" fill-rule="evenodd" transform="translate(64 63)">
        <mask id="b" fill="#fff">
            <use xlink:href="#a"/>
        </mask>
        <use fill="#768796" fill-rule="nonzero" xlink:href="#a"/>
        <g fill="#9013FE" mask="url(#b)">
            <path d="M0 0h172v176H0z"/>
        </g>
    </g>
</svg>
