<svg xmlns="http://www.w3.org/2000/svg" xmlns:xlink="http://www.w3.org/1999/xlink" width="300" height="300" viewBox="0 0 300 300">
    <defs>
        <path id="a" d="M236.317 60.821a21.41 21.41 0 0 1-10.624 20.258V223.4c0 5.917-4.797 10.714-10.714 10.714H21.409a10.715 10.715 0 0 1-10.716-10.715V81.08A21.41 21.41 0 0 1 .07 60.821c.846-10.864 10.948-19.708 21.845-19.708h18.778V21.441A21.485 21.485 0 0 1 65.346.235c10.629 1.504 18.347 10.932 18.347 21.667v19.211h70V21.441A21.485 21.485 0 0 1 178.346.235c10.629 1.504 18.347 10.932 18.347 21.667v19.211h17.779c10.897 0 20.998 8.844 21.845 19.708zm-84.484 51.765c4.187-4.172 10.96-4.167 15.14.012 4.179 4.18 4.184 10.954.012 15.14l-55.78 55.772a10.711 10.711 0 0 1-15.15 0l-27.653-27.646c-4.172-4.186-4.167-10.96.012-15.139 4.18-4.179 10.953-4.185 15.14-.012l20.076 20.07 48.203-48.197zM32.693 213.113h173v-129h-173v129z"/>
    </defs>
    <g fill="none" fill-rule="evenodd" transform="translate(32 33)">
        <mask id="b" fill="#fff">
            <use xlink:href="#a"/>
        </mask>
        <use fill="#768796" fill-rule="nonzero" xlink:href="#a"/>
        <g fill="#9013FE" mask="url(#b)">
            <path d="M0 0h236v234H0z"/>
        </g>
    </g>
</svg>
