<svg xmlns="http://www.w3.org/2000/svg" xmlns:xlink="http://www.w3.org/1999/xlink" width="300" height="300" viewBox="0 0 300 300">
    <defs>
        <path id="a" d="M227.537 100.243l-27.15-27.15a7.14 7.14 0 0 0-10.1 0L88.242 175.129c-.037.037-.068.077-.104.115a7.03 7.03 0 0 0-.22.243 7.101 7.101 0 0 0-.225.266c-.08.1-.154.204-.228.308a7.204 7.204 0 0 0-.173.253c-.073.113-.142.23-.209.347a7.106 7.106 0 0 0-.435.91c-.023.059-.052.114-.073.174L71.459 219.44a7.543 7.543 0 0 0 7.339 10.129 7.127 7.127 0 0 0 2.413-.405l41.674-15.11c.061-.022.117-.05.177-.074.091-.036.18-.074.27-.114a7.11 7.11 0 0 0 1.015-.547c.056-.036.11-.074.165-.112.141-.098.28-.199.412-.306.045-.036.09-.075.134-.112a7.09 7.09 0 0 0 .39-.354c.018-.017.036-.031.053-.048l102.036-102.043a7.14 7.14 0 0 0 0-10.101zm-50.931 6.73l17.05 17.051-73.205 73.212-17.056-17.056 73.21-73.206zM96.183 193.17l11.277 11.278-17.696 6.418 6.419-17.696zm107.574-79.247l-17.05-17.05 8.63-8.629 17.049 17.05-8.63 8.629z"/>
    </defs>
    <g fill="none" fill-rule="evenodd">
        <mask id="b" fill="#fff">
            <use xlink:href="#a"/>
        </mask>
        <use fill="#768796" fill-rule="nonzero" xlink:href="#a"/>
        <g fill="#9013FE" mask="url(#b)">
            <path d="M70 70h166v166H70z"/>
        </g>
    </g>
</svg>
