<svg xmlns="http://www.w3.org/2000/svg" xmlns:xlink="http://www.w3.org/1999/xlink" width="300" height="300" viewBox="0 0 300 300">
    <defs>
        <path id="a" d="M93.267 135.052c-5.884 0-10.682 4.792-10.682 10.682v84.721c0 5.89 4.798 10.688 10.682 10.688h113.207c5.884 0 10.682-4.798 10.682-10.688v-84.72c-.013-5.885-4.798-10.683-10.682-10.683H93.267zm10.44-20.585V85.163c0-25.458 20.707-46.164 46.157-46.164 25.464 0 46.17 20.706 46.17 46.164v29.304h10.44c17.222 0 31.254 14.018 31.268 31.253v84.735c0 17.242-14.033 31.274-31.268 31.274H93.267C76.032 261.73 62 247.697 62 230.455v-84.72c0-17.243 14.033-31.268 31.268-31.268h10.44zm20.586 0h51.156V85.163c0-14.106-11.473-25.578-25.585-25.578-14.1 0-25.571 11.472-25.571 25.578v29.304zm25.578 62.273c-7.56 0-13.71 6.15-13.71 13.71 0 7.559 6.15 13.71 13.71 13.71 7.559 0 13.71-6.151 13.71-13.71 0-7.56-6.151-13.71-13.71-13.71m0 41.144c-15.131 0-27.434-12.31-27.434-27.434s12.303-27.434 27.434-27.434c15.13 0 27.435 12.31 27.435 27.434s-12.304 27.434-27.435 27.434"/>
    </defs>
    <g fill="none" fill-rule="evenodd">
        <mask id="b" fill="#fff">
            <use xlink:href="#a"/>
        </mask>
        <use fill="#768796" xlink:href="#a"/>
        <g fill="#9013FE" mask="url(#b)">
            <path d="M39 39h222v222H39z"/>
        </g>
    </g>
</svg>
