<svg version="1.0"
	 id="svg2876" xmlns:rdf="http://www.w3.org/1999/02/22-rdf-syntax-ns#" xmlns:cc="http://creativecommons.org/ns#" xmlns:svg="http://www.w3.org/2000/svg" xmlns:dc="http://purl.org/dc/elements/1.1/" inkscape:version="0.47 r22583" sodipodi:docname="totenkitten.svg" xmlns:sodipodi="http://sodipodi.sourceforge.net/DTD/sodipodi-0.dtd" xmlns:inkscape="http://www.inkscape.org/namespaces/inkscape"
	 xmlns="http://www.w3.org/2000/svg" xmlns:xlink="http://www.w3.org/1999/xlink" x="0px" y="0px" viewBox="0 0 1728 1728"
	 enable-background="new 0 0 1728 1728" xml:space="preserve">
<g fill="#FFFFFF">
<path d="M1347.2,670c-1.2-18.8-0.4-37.2-3.2-64c-0.4-22.4-3.2-34.4-5.2-60c-4-32.8-8.4-55.2-17.2-93.2c-2.8-18.4-7.2-35.6-13.6-58.8
	c-4.8-16.4-6-21.6-12-37.6c-6-21.6-14-28.4-21.6-50.4c-11.6-19.2-24-54-32.4-34c-6.8,8-15.6,14-34.8,42c-10,14-20,28.4-26,41.2
	c-20.8,36.8-5.6,10-17.2,31.6c-10,23.2-24.4,48.4-35.6,88c-6.4,16.4-9.6,30.8-21.2,64c-7.6,24-6.4,17.6-9.2,39.2
	c-2.8,13.6-6,26.8-13.2,39.6c-7.2,7.2-12.4,6.4-33.2-3.2c-19.6-5.6-35.2-10-56-13.2c-22.8-5.2-52.4-8-78.8-9.2
	c-22.4-1.6-45.2-1.2-69.2,0c-22.8,0.8-55.6,3.2-82,7.6c-24.8,2.4-55.6,13.6-74,20c-12.8,6.4-28.8,4.8-34,6c-5.6,1.6-9.6-4-12.4-11.6
	c-2.8-28.4-8.8-47.6-16.4-83.2c-4-23.6-7.2-29.6-13.6-50.4c-6.4-22.8-13.2-40.8-19.2-52.8c-10.8-19.6-13.2-27.6-20.8-41.2
	c-9.6-17.2-18.8-30.4-28-46c-7.6-12.4-4-9.6-12.8-20c-4.4-6.8-11.2-14-15.6-20c-5.6-6.8-10-11.6-13.6-16.8l-8.8-12.4
	c-4.4-7.2-7.6-8.4-12.4-1.2c-12.8,17.2-14,21.2-28,42.8c-10.4,26-10,22.4-18.4,44.4c-6.8,20.8-18,40.4-27.2,80
	c-6.4,36.8-16,45.6-17.6,84c-2,22-7.6,54.8-9.6,78c-0.8,24-3.6,54-3.6,83.2c0,33.2,4.8,68,6,103.2c0,23.6,2.4,49.2,6,74.8
	c2.8,22.4,4.8,27.6,9.6,52.8c3.2,19.6,7.2,37.6,12,54.4c6,22.8,9.2,34.8,16.8,53.6c9.2,23.2,12.4,25.2,28.4,64
	c5.6,15.2,16.8,36.4,24.4,51.6c6.8,13.6,7.2,17.2,20.4,38c8.4,12.8,18.4,30.4,31.6,48.8c12.4,19.6,20,26.8,35.6,42
	c-2.8-3.2,16,12.4,27.2,24c8.4,6.8,28.4,23.6,48,33.6c8.8,9.2,13.2,35.6,19.2,56.8c6.8,21.2,16.8,76,26.4,78.8
	c9.6-12.4,13.2-57.2,18-88c4.4-17.2,10.4-58,12.8-67.6c4.4,5.6,0.8,39.2,6.8,42c14.4,6.8,16.4,10.8,37.6,3.2
	c34.4,3.2,16-24.4,25.2-41.2c-1.2-24.4,10,38,12.4,38.4c6.4,5.6,35.6,1.2,46,0c26.8,5.2,16-36,21.2-43.6c0-2.4,0.8,44.4,12.8,44.8
	c5.6-0.4,22.8-1.6,34.8,0c22.4,2,10.4-23.2,20.4-42c0-11.2,0.8,4,1.2,19.2c1.2,20-2.8,26,13.6,24.4c21.6-4.4,50.4,3.6,42-8.4
	c3.2-13.2,5.6-21.6,5.2-26.8c-0.4-26.4,8,12.8,9.2,21.6c2.4,15.6,8.4,32.8,13.6,50.8c2.4,14.8,8.8,36.4,16.4,56.8
	c14.8,45.2,15.6-7.6,22.4-21.2c3.2-22,7.2-56.8,9.2-78c-1.2-18.8,6.4-24.8,21.2-31.6c18.8-12,22.8-15.2,38.8-28.8
	c15.2-14.8,22-25.2,32.8-37.2c15.2-20.8,12.4-14.8,23.6-29.2c21.6-28,23.2-32.4,36-48.8c12.8-20.4,14.4-24.8,19.2-35.6
	c4.8-10.8,8.4-11.6,18.4-34c10.8-20.8,15.2-27.6,21.6-45.6c11.6-24.8,18.4-46.4,26-73.6c10.8-29.6,11.6-56.4,18-88
	c5.2-34.8,10.8-61.6,13.6-95.6c2.8-24,5.2-42.8,4.8-66.8C1349.2,696,1346,686.4,1347.2,670z M756.8,966.4c-4,8-19.6,27.6-27.2,32
	c-12.8,7.6-20,13.2-34.8,16c-20.4-1.2-42.4,3.2-61.2-6.4c-20.8-5.6-25.2-10.8-38.4-20.4c-13.2-9.6-26.4-29.2-34-42.8
	c-8-15.6-11.2-22.8-14.4-37.2c-3.2-16.4-3.2-21.6-5.2-32.8c-0.4-16.4-2.8-36,0-52.8c1.2-22.4,7.2-38,20-58c8.8-20.4,36.8-34,60-31.6
	c21.2,4,36.4,4.8,54.4,18c22,11.2,28,21.2,44,38.8c8.8,10,20.8,34.8,27.6,46c9.6,25.2,17.6,48.4,17.2,75.6
	C766.4,931.2,765.2,946.4,756.8,966.4z M917.6,1112.4c-3.6,6.8-1.2,6.4-4.8,17.6c-2.8,10-4,15.2-6.8,23.2c0,8.4-2,5.2-3.2,16.4
	c-1.2,6.8-2.8,11.2-5.6,21.2c-2,8.4-3.2,10.8-7.2,18.4c-3.6,6.4-9.2,9.2-10.8,8c-5.2,4.4-11.2,0.4-16-2c-2.8-1.2-5.2-2.8-7.2-4.8
	c-5.2-10.4-11.6-20.8-15.6-31.6c-6.4-14.4-12-29.2-18-44c-2.8-9.2-8-17.2-9.2-26.8c-2-6.4-5.2-14.8,0.8-20
	c6.8-3.6,13.6-3.6,22.4-4.8c9.2-0.4,18.4-0.4,28-1.2c6.8-2,17.6-0.4,24.4,0c9.6-1.2,10.8-1.2,20,0.8c7.6,1.2,11.2,2.4,12.4,10.8
	C920,1101.2,919.2,1104.8,917.6,1112.4z M1177.2,877.6c-2,11.2-0.4,24.8-5.2,32.8c-3.2,15.2-6.4,21.6-14.4,37.2
	c-7.6,13.6-20.8,33.2-34,42.8c-12.8,9.2-17.6,14.8-38.4,20.4c-18.8,9.6-40.8,5.2-61.2,6.4c-14.8-2.8-22-8.4-34.8-16
	c-8-4.8-23.6-24.4-27.2-32c-8.4-20-9.6-35.2-8-55.6c-0.4-27.2,7.6-50.4,17.2-75.6c6.8-11.2,18.8-36,27.6-46c16-17.6,22-27.6,44-38.8
	c18-13.2,33.2-14,54.4-18c23.2-2.4,51.2,11.2,60,31.6c12.8,20,18.8,35.6,20,58C1180,841.6,1177.6,861.2,1177.2,877.6z"/>
	</g>
</svg>