<svg xmlns="http://www.w3.org/2000/svg" xmlns:xlink="http://www.w3.org/1999/xlink" width="300" height="300" viewBox="0 0 300 300">
    <defs>
        <path id="a" d="M137.583 18.672c58.465 16.117 93.092 76.17 77.19 133.882a10.226 10.226 0 1 1-19.715-5.439c12.903-46.827-15.326-95.597-62.913-108.713A89.53 89.53 0 0 0 55.33 52.143l22.96 6.321c5.445 1.506 8.64 7.137 7.139 12.582-1.501 5.446-7.13 8.645-12.577 7.148L26.787 65.507a10.222 10.222 0 0 1-7.139-12.585L32.166 7.514a10.226 10.226 0 1 1 19.715 5.439l-5.68 20.602a110.134 110.134 0 0 1 91.382-14.883zm54.268 155.2c5.445 1.506 8.64 7.139 7.138 12.584l-12.503 45.4a10.226 10.226 0 1 1-19.715-5.438l5.677-20.616a109.49 109.49 0 0 1-61.629 18.946 112.17 112.17 0 0 1-29.765-4.042C22.59 204.59-12.037 144.53 3.864 86.818a10.226 10.226 0 1 1 19.716 5.438c-12.903 46.834 15.325 95.604 62.913 108.72a89.649 89.649 0 0 0 76.807-13.745l-22.953-6.324c-5.448-1.502-8.648-7.136-7.146-12.585 1.502-5.448 7.137-8.647 12.585-7.145l46.065 12.695z"/>
    </defs>
    <g fill="none" fill-rule="evenodd" transform="translate(41 30)">
        <mask id="b" fill="#fff">
            <use xlink:href="#a"/>
        </mask>
        <use fill="#768796" fill-rule="nonzero" xlink:href="#a"/>
        <g fill="#9013FE" mask="url(#b)">
            <path d="M-1 0h220v240H-1z"/>
        </g>
    </g>
</svg>
