<svg xmlns="http://www.w3.org/2000/svg" xmlns:xlink="http://www.w3.org/1999/xlink" width="300" height="300" viewBox="0 0 300 300">
    <defs>
        <path id="a" d="M127.404 53C86.404 53 53 86.405 53 127.404c0 41 33.405 74.404 74.404 74.404 17.75 0 34.095-6.244 46.903-16.677l60.534 60.614c3.007 3.007 7.897 3.007 10.904 0 3.007-3.007 3.007-7.897 0-10.904l-60.614-60.534c10.433-12.808 16.677-29.154 16.677-46.903 0-41-33.405-74.404-74.404-74.404zM127 68c32.676 0 59 26.324 59 59s-26.324 59-59 59-59-26.324-59-59 26.324-59 59-59z"/>
    </defs>
    <g fill="none" fill-rule="evenodd">
        <mask id="b" fill="#fff">
            <use xlink:href="#a"/>
        </mask>
        <use fill="#000" xlink:href="#a"/>
        <g fill="#9013FE" mask="url(#b)">
            <path d="M-1 0h301v300H-1z"/>
        </g>
    </g>
</svg>
