<svg xmlns="http://www.w3.org/2000/svg" xmlns:xlink="http://www.w3.org/1999/xlink" width="300" height="300" viewBox="0 0 300 300">
    <defs>
        <path id="a" d="M237.341 31.388h-147.7c-5.5.1-10.2-4.1-10.8-9.6-.5-5.8 3.9-10.9 9.7-11.4h148.7c5.5-.1 10.2 4.1 10.8 9.6.5 5.8-3.9 10.9-9.7 11.4h-1zm0 66h-147.7c-5.5.1-10.2-4.1-10.8-9.6-.5-5.8 3.9-10.9 9.7-11.4h148.7c5.5-.1 10.2 4.1 10.8 9.6.5 5.8-3.9 10.9-9.7 11.4h-1zm0 67h-147.7c-5.5.1-10.2-4.1-10.8-9.6-.5-5.8 3.9-10.9 9.7-11.4h148.7c5.5-.1 10.2 4.1 10.8 9.6.5 5.8-3.9 10.9-9.7 11.4h-1zm-213.6-121c-11.8 1.2-22.4-7.3-23.6-19.1-.1-1.3-.2-2.6-.1-3.9 1-13.1 13.5-22.7 26.3-19.9 9.6 2 16.5 10.4 16.5 20.2v.8c0 11.1-8.1 20.8-19.1 21.9zm0 65.7c-11.8 1.2-22.3-7.3-23.6-19.1-.1-1.3-.2-2.6-.1-3.9 1-13.1 13.4-22.7 26.3-19.9 9.6 2 16.5 10.4 16.5 20.2v.8c0 11.1-8.1 20.8-19.1 21.9zm0 65.7c-11.8 1.2-22.3-7.3-23.6-19.1-.1-1.3-.2-2.6-.1-3.9 1-13.1 13.4-22.7 26.3-19.9 9.6 2 16.5 10.4 16.5 20.2v.8c0 11.1-8.1 20.7-19.1 21.9z"/>
    </defs>
    <g fill="none" fill-rule="evenodd" transform="translate(26 63)">
        <mask id="b" fill="#fff">
            <use xlink:href="#a"/>
        </mask>
        <use fill="#768796" fill-rule="nonzero" xlink:href="#a"/>
        <g fill="#9013FE" mask="url(#b)">
            <path d="M0-1h249v175H0z"/>
        </g>
    </g>
</svg>
