<svg xmlns="http://www.w3.org/2000/svg" xmlns:xlink="http://www.w3.org/1999/xlink" width="300" height="300" viewBox="0 0 300 300">
    <defs>
        <path id="a" d="M138.003 101.85l-30-30 27.3-27.3c9.9-9.6 10.9-24.7 1.4-34.5l-.2-.2c-9.5-9.5-25.5-10-35.3-.4l-27.8 27.8-29.7-29.7-.2-.2c-9.6-9.7-25.2-9.8-35-.3-9.9 9.6-10.9 26.2-1.3 36.1l30.2 30.2-29.4 29.4c-9.9 9.7-10.9 24.8-1.4 34.5l.2.2c9.8 9.7 25.4 9.8 35.4.4l29.9-29.9 29.7 29.7.1.1c9.8 9.8 25.2 10.6 35.2.9 9.9-9.9 10.7-26.7.9-36.8z"/>
    </defs>
    <g fill="none" fill-rule="evenodd" transform="translate(78 77)">
        <mask id="b" fill="#fff">
            <use xlink:href="#a"/>
        </mask>
        <use fill="#768796" fill-rule="nonzero" xlink:href="#a"/>
        <g fill="#9013FE" mask="url(#b)">
            <path d="M0 0h145v146H0z"/>
        </g>
    </g>
</svg>
